<?xml version="1.0" encoding="utf-8" standalone="no"?>
<!DOCTYPE svg PUBLIC "-//W3C//DTD SVG 1.1//EN"
  "http://www.w3.org/Graphics/SVG/1.1/DTD/svg11.dtd">
<svg xmlns:xlink="http://www.w3.org/1999/xlink" width="789.789425pt" height="772.521925pt" viewBox="0 0 789.789425 772.521925" xmlns="http://www.w3.org/2000/svg" version="1.1">
 <metadata>
  <rdf:RDF xmlns:dc="http://purl.org/dc/elements/1.1/" xmlns:cc="http://creativecommons.org/ns#" xmlns:rdf="http://www.w3.org/1999/02/22-rdf-syntax-ns#">
   <cc:Work>
    <dc:type rdf:resource="http://purl.org/dc/dcmitype/StillImage"/>
    <dc:date>1980-01-01T00:00:00+00:00</dc:date>
    <dc:format>image/svg+xml</dc:format>
    <dc:creator>
     <cc:Agent>
      <dc:title>Matplotlib v3.10.1, https://matplotlib.org/</dc:title>
     </cc:Agent>
    </dc:creator>
   </cc:Work>
  </rdf:RDF>
 </metadata>
 <defs>
  <style type="text/css">*{stroke-linejoin: round; stroke-linecap: butt}</style>
 </defs>
 <g id="figure_1">
  <g id="patch_1">
   <path d="M 0 772.521925 
L 789.789425 772.521925 
L 789.789425 0 
L 0 0 
z
" style="fill: #ffffff"/>
  </g>
  <g id="axes_1">
   <g id="patch_2">
    <path d="M 57.189425 727.92 
L 782.589425 727.92 
L 782.589425 7.2 
L 57.189425 7.2 
z
" style="fill: #ffffff"/>
   </g>
   <g id="matplotlib.axis_1">
    <g id="xtick_1">
     <g id="line2d_1">
      <defs>
       <path id="m73b136d73b" d="M 0 0 
L 0 3.5 
" style="stroke: #000000; stroke-width: 0.8"/>
      </defs>
      <g>
       <use xlink:href="#m73b136d73b" x="90.162152" y="727.92" style="stroke: #000000; stroke-width: 0.8"/>
      </g>
     </g>
     <g id="text_1">
      <!-- 0 -->
      <g transform="translate(86.980902 742.518437) scale(0.1 -0.1)">
       <defs>
        <path id="DejaVuSans-30" d="M 2034 4250 
Q 1547 4250 1301 3770 
Q 1056 3291 1056 2328 
Q 1056 1369 1301 889 
Q 1547 409 2034 409 
Q 2525 409 2770 889 
Q 3016 1369 3016 2328 
Q 3016 3291 2770 3770 
Q 2525 4250 2034 4250 
z
M 2034 4750 
Q 2819 4750 3233 4129 
Q 3647 3509 3647 2328 
Q 3647 1150 3233 529 
Q 2819 -91 2034 -91 
Q 1250 -91 836 529 
Q 422 1150 422 2328 
Q 422 3509 836 4129 
Q 1250 4750 2034 4750 
z
" transform="scale(0.015625)"/>
       </defs>
       <use xlink:href="#DejaVuSans-30"/>
      </g>
     </g>
    </g>
    <g id="xtick_2">
     <g id="line2d_2">
      <g>
       <use xlink:href="#m73b136d73b" x="179.277631" y="727.92" style="stroke: #000000; stroke-width: 0.8"/>
      </g>
     </g>
     <g id="text_2">
      <!-- 10 -->
      <g transform="translate(172.915131 742.518437) scale(0.1 -0.1)">
       <defs>
        <path id="DejaVuSans-31" d="M 794 531 
L 1825 531 
L 1825 4091 
L 703 3866 
L 703 4441 
L 1819 4666 
L 2450 4666 
L 2450 531 
L 3481 531 
L 3481 0 
L 794 0 
L 794 531 
z
" transform="scale(0.015625)"/>
       </defs>
       <use xlink:href="#DejaVuSans-31"/>
       <use xlink:href="#DejaVuSans-30" transform="translate(63.623047 0)"/>
      </g>
     </g>
    </g>
    <g id="xtick_3">
     <g id="line2d_3">
      <g>
       <use xlink:href="#m73b136d73b" x="268.393111" y="727.92" style="stroke: #000000; stroke-width: 0.8"/>
      </g>
     </g>
     <g id="text_3">
      <!-- 20 -->
      <g transform="translate(262.030611 742.518437) scale(0.1 -0.1)">
       <defs>
        <path id="DejaVuSans-32" d="M 1228 531 
L 3431 531 
L 3431 0 
L 469 0 
L 469 531 
Q 828 903 1448 1529 
Q 2069 2156 2228 2338 
Q 2531 2678 2651 2914 
Q 2772 3150 2772 3378 
Q 2772 3750 2511 3984 
Q 2250 4219 1831 4219 
Q 1534 4219 1204 4116 
Q 875 4013 500 3803 
L 500 4441 
Q 881 4594 1212 4672 
Q 1544 4750 1819 4750 
Q 2544 4750 2975 4387 
Q 3406 4025 3406 3419 
Q 3406 3131 3298 2873 
Q 3191 2616 2906 2266 
Q 2828 2175 2409 1742 
Q 1991 1309 1228 531 
z
" transform="scale(0.015625)"/>
       </defs>
       <use xlink:href="#DejaVuSans-32"/>
       <use xlink:href="#DejaVuSans-30" transform="translate(63.623047 0)"/>
      </g>
     </g>
    </g>
    <g id="xtick_4">
     <g id="line2d_4">
      <g>
       <use xlink:href="#m73b136d73b" x="357.50859" y="727.92" style="stroke: #000000; stroke-width: 0.8"/>
      </g>
     </g>
     <g id="text_4">
      <!-- 30 -->
      <g transform="translate(351.14609 742.518437) scale(0.1 -0.1)">
       <defs>
        <path id="DejaVuSans-33" d="M 2597 2516 
Q 3050 2419 3304 2112 
Q 3559 1806 3559 1356 
Q 3559 666 3084 287 
Q 2609 -91 1734 -91 
Q 1441 -91 1130 -33 
Q 819 25 488 141 
L 488 750 
Q 750 597 1062 519 
Q 1375 441 1716 441 
Q 2309 441 2620 675 
Q 2931 909 2931 1356 
Q 2931 1769 2642 2001 
Q 2353 2234 1838 2234 
L 1294 2234 
L 1294 2753 
L 1863 2753 
Q 2328 2753 2575 2939 
Q 2822 3125 2822 3475 
Q 2822 3834 2567 4026 
Q 2313 4219 1838 4219 
Q 1578 4219 1281 4162 
Q 984 4106 628 3988 
L 628 4550 
Q 988 4650 1302 4700 
Q 1616 4750 1894 4750 
Q 2613 4750 3031 4423 
Q 3450 4097 3450 3541 
Q 3450 3153 3228 2886 
Q 3006 2619 2597 2516 
z
" transform="scale(0.015625)"/>
       </defs>
       <use xlink:href="#DejaVuSans-33"/>
       <use xlink:href="#DejaVuSans-30" transform="translate(63.623047 0)"/>
      </g>
     </g>
    </g>
    <g id="xtick_5">
     <g id="line2d_5">
      <g>
       <use xlink:href="#m73b136d73b" x="446.624069" y="727.92" style="stroke: #000000; stroke-width: 0.8"/>
      </g>
     </g>
     <g id="text_5">
      <!-- 40 -->
      <g transform="translate(440.261569 742.518437) scale(0.1 -0.1)">
       <defs>
        <path id="DejaVuSans-34" d="M 2419 4116 
L 825 1625 
L 2419 1625 
L 2419 4116 
z
M 2253 4666 
L 3047 4666 
L 3047 1625 
L 3713 1625 
L 3713 1100 
L 3047 1100 
L 3047 0 
L 2419 0 
L 2419 1100 
L 313 1100 
L 313 1709 
L 2253 4666 
z
" transform="scale(0.015625)"/>
       </defs>
       <use xlink:href="#DejaVuSans-34"/>
       <use xlink:href="#DejaVuSans-30" transform="translate(63.623047 0)"/>
      </g>
     </g>
    </g>
    <g id="xtick_6">
     <g id="line2d_6">
      <g>
       <use xlink:href="#m73b136d73b" x="535.739548" y="727.92" style="stroke: #000000; stroke-width: 0.8"/>
      </g>
     </g>
     <g id="text_6">
      <!-- 50 -->
      <g transform="translate(529.377048 742.518437) scale(0.1 -0.1)">
       <defs>
        <path id="DejaVuSans-35" d="M 691 4666 
L 3169 4666 
L 3169 4134 
L 1269 4134 
L 1269 2991 
Q 1406 3038 1543 3061 
Q 1681 3084 1819 3084 
Q 2600 3084 3056 2656 
Q 3513 2228 3513 1497 
Q 3513 744 3044 326 
Q 2575 -91 1722 -91 
Q 1428 -91 1123 -41 
Q 819 9 494 109 
L 494 744 
Q 775 591 1075 516 
Q 1375 441 1709 441 
Q 2250 441 2565 725 
Q 2881 1009 2881 1497 
Q 2881 1984 2565 2268 
Q 2250 2553 1709 2553 
Q 1456 2553 1204 2497 
Q 953 2441 691 2322 
L 691 4666 
z
" transform="scale(0.015625)"/>
       </defs>
       <use xlink:href="#DejaVuSans-35"/>
       <use xlink:href="#DejaVuSans-30" transform="translate(63.623047 0)"/>
      </g>
     </g>
    </g>
    <g id="xtick_7">
     <g id="line2d_7">
      <g>
       <use xlink:href="#m73b136d73b" x="624.855027" y="727.92" style="stroke: #000000; stroke-width: 0.8"/>
      </g>
     </g>
     <g id="text_7">
      <!-- 60 -->
      <g transform="translate(618.492527 742.518437) scale(0.1 -0.1)">
       <defs>
        <path id="DejaVuSans-36" d="M 2113 2584 
Q 1688 2584 1439 2293 
Q 1191 2003 1191 1497 
Q 1191 994 1439 701 
Q 1688 409 2113 409 
Q 2538 409 2786 701 
Q 3034 994 3034 1497 
Q 3034 2003 2786 2293 
Q 2538 2584 2113 2584 
z
M 3366 4563 
L 3366 3988 
Q 3128 4100 2886 4159 
Q 2644 4219 2406 4219 
Q 1781 4219 1451 3797 
Q 1122 3375 1075 2522 
Q 1259 2794 1537 2939 
Q 1816 3084 2150 3084 
Q 2853 3084 3261 2657 
Q 3669 2231 3669 1497 
Q 3669 778 3244 343 
Q 2819 -91 2113 -91 
Q 1303 -91 875 529 
Q 447 1150 447 2328 
Q 447 3434 972 4092 
Q 1497 4750 2381 4750 
Q 2619 4750 2861 4703 
Q 3103 4656 3366 4563 
z
" transform="scale(0.015625)"/>
       </defs>
       <use xlink:href="#DejaVuSans-36"/>
       <use xlink:href="#DejaVuSans-30" transform="translate(63.623047 0)"/>
      </g>
     </g>
    </g>
    <g id="xtick_8">
     <g id="line2d_8">
      <g>
       <use xlink:href="#m73b136d73b" x="713.970506" y="727.92" style="stroke: #000000; stroke-width: 0.8"/>
      </g>
     </g>
     <g id="text_8">
      <!-- 70 -->
      <g transform="translate(707.608006 742.518437) scale(0.1 -0.1)">
       <defs>
        <path id="DejaVuSans-37" d="M 525 4666 
L 3525 4666 
L 3525 4397 
L 1831 0 
L 1172 0 
L 2766 4134 
L 525 4134 
L 525 4666 
z
" transform="scale(0.015625)"/>
       </defs>
       <use xlink:href="#DejaVuSans-37"/>
       <use xlink:href="#DejaVuSans-30" transform="translate(63.623047 0)"/>
      </g>
     </g>
    </g>
    <g id="text_9">
     <!-- Year -->
     <g transform="translate(401.594225 761.728225) scale(0.1728 -0.1728)">
      <defs>
       <path id="DejaVuSans-59" d="M -13 4666 
L 666 4666 
L 1959 2747 
L 3244 4666 
L 3922 4666 
L 2272 2222 
L 2272 0 
L 1638 0 
L 1638 2222 
L -13 4666 
z
" transform="scale(0.015625)"/>
       <path id="DejaVuSans-65" d="M 3597 1894 
L 3597 1613 
L 953 1613 
Q 991 1019 1311 708 
Q 1631 397 2203 397 
Q 2534 397 2845 478 
Q 3156 559 3463 722 
L 3463 178 
Q 3153 47 2828 -22 
Q 2503 -91 2169 -91 
Q 1331 -91 842 396 
Q 353 884 353 1716 
Q 353 2575 817 3079 
Q 1281 3584 2069 3584 
Q 2775 3584 3186 3129 
Q 3597 2675 3597 1894 
z
M 3022 2063 
Q 3016 2534 2758 2815 
Q 2500 3097 2075 3097 
Q 1594 3097 1305 2825 
Q 1016 2553 972 2059 
L 3022 2063 
z
" transform="scale(0.015625)"/>
       <path id="DejaVuSans-61" d="M 2194 1759 
Q 1497 1759 1228 1600 
Q 959 1441 959 1056 
Q 959 750 1161 570 
Q 1363 391 1709 391 
Q 2188 391 2477 730 
Q 2766 1069 2766 1631 
L 2766 1759 
L 2194 1759 
z
M 3341 1997 
L 3341 0 
L 2766 0 
L 2766 531 
Q 2569 213 2275 61 
Q 1981 -91 1556 -91 
Q 1019 -91 701 211 
Q 384 513 384 1019 
Q 384 1609 779 1909 
Q 1175 2209 1959 2209 
L 2766 2209 
L 2766 2266 
Q 2766 2663 2505 2880 
Q 2244 3097 1772 3097 
Q 1472 3097 1187 3025 
Q 903 2953 641 2809 
L 641 3341 
Q 956 3463 1253 3523 
Q 1550 3584 1831 3584 
Q 2591 3584 2966 3190 
Q 3341 2797 3341 1997 
z
" transform="scale(0.015625)"/>
       <path id="DejaVuSans-72" d="M 2631 2963 
Q 2534 3019 2420 3045 
Q 2306 3072 2169 3072 
Q 1681 3072 1420 2755 
Q 1159 2438 1159 1844 
L 1159 0 
L 581 0 
L 581 3500 
L 1159 3500 
L 1159 2956 
Q 1341 3275 1631 3429 
Q 1922 3584 2338 3584 
Q 2397 3584 2469 3576 
Q 2541 3569 2628 3553 
L 2631 2963 
z
" transform="scale(0.015625)"/>
      </defs>
      <use xlink:href="#DejaVuSans-59"/>
      <use xlink:href="#DejaVuSans-65" transform="translate(47.833984 0)"/>
      <use xlink:href="#DejaVuSans-61" transform="translate(109.357422 0)"/>
      <use xlink:href="#DejaVuSans-72" transform="translate(170.636719 0)"/>
     </g>
    </g>
   </g>
   <g id="matplotlib.axis_2">
    <g id="ytick_1">
     <g id="line2d_9">
      <defs>
       <path id="mfe05efda3b" d="M 0 0 
L -3.5 0 
" style="stroke: #000000; stroke-width: 0.8"/>
      </defs>
      <g>
       <use xlink:href="#mfe05efda3b" x="57.189425" y="705.016277" style="stroke: #000000; stroke-width: 0.8"/>
      </g>
     </g>
     <g id="text_10">
      <!-- 13.5 -->
      <g transform="translate(27.9238 708.815496) scale(0.1 -0.1)">
       <defs>
        <path id="DejaVuSans-2e" d="M 684 794 
L 1344 794 
L 1344 0 
L 684 0 
L 684 794 
z
" transform="scale(0.015625)"/>
       </defs>
       <use xlink:href="#DejaVuSans-31"/>
       <use xlink:href="#DejaVuSans-33" transform="translate(63.623047 0)"/>
       <use xlink:href="#DejaVuSans-2e" transform="translate(127.246094 0)"/>
       <use xlink:href="#DejaVuSans-35" transform="translate(159.033203 0)"/>
      </g>
     </g>
    </g>
    <g id="ytick_2">
     <g id="line2d_10">
      <g>
       <use xlink:href="#mfe05efda3b" x="57.189425" y="586.531461" style="stroke: #000000; stroke-width: 0.8"/>
      </g>
     </g>
     <g id="text_11">
      <!-- 14.0 -->
      <g transform="translate(27.9238 590.33068) scale(0.1 -0.1)">
       <use xlink:href="#DejaVuSans-31"/>
       <use xlink:href="#DejaVuSans-34" transform="translate(63.623047 0)"/>
       <use xlink:href="#DejaVuSans-2e" transform="translate(127.246094 0)"/>
       <use xlink:href="#DejaVuSans-30" transform="translate(159.033203 0)"/>
      </g>
     </g>
    </g>
    <g id="ytick_3">
     <g id="line2d_11">
      <g>
       <use xlink:href="#mfe05efda3b" x="57.189425" y="468.046644" style="stroke: #000000; stroke-width: 0.8"/>
      </g>
     </g>
     <g id="text_12">
      <!-- 14.5 -->
      <g transform="translate(27.9238 471.845863) scale(0.1 -0.1)">
       <use xlink:href="#DejaVuSans-31"/>
       <use xlink:href="#DejaVuSans-34" transform="translate(63.623047 0)"/>
       <use xlink:href="#DejaVuSans-2e" transform="translate(127.246094 0)"/>
       <use xlink:href="#DejaVuSans-35" transform="translate(159.033203 0)"/>
      </g>
     </g>
    </g>
    <g id="ytick_4">
     <g id="line2d_12">
      <g>
       <use xlink:href="#mfe05efda3b" x="57.189425" y="349.561828" style="stroke: #000000; stroke-width: 0.8"/>
      </g>
     </g>
     <g id="text_13">
      <!-- 15.0 -->
      <g transform="translate(27.9238 353.361047) scale(0.1 -0.1)">
       <use xlink:href="#DejaVuSans-31"/>
       <use xlink:href="#DejaVuSans-35" transform="translate(63.623047 0)"/>
       <use xlink:href="#DejaVuSans-2e" transform="translate(127.246094 0)"/>
       <use xlink:href="#DejaVuSans-30" transform="translate(159.033203 0)"/>
      </g>
     </g>
    </g>
    <g id="ytick_5">
     <g id="line2d_13">
      <g>
       <use xlink:href="#mfe05efda3b" x="57.189425" y="231.077012" style="stroke: #000000; stroke-width: 0.8"/>
      </g>
     </g>
     <g id="text_14">
      <!-- 15.5 -->
      <g transform="translate(27.9238 234.87623) scale(0.1 -0.1)">
       <use xlink:href="#DejaVuSans-31"/>
       <use xlink:href="#DejaVuSans-35" transform="translate(63.623047 0)"/>
       <use xlink:href="#DejaVuSans-2e" transform="translate(127.246094 0)"/>
       <use xlink:href="#DejaVuSans-35" transform="translate(159.033203 0)"/>
      </g>
     </g>
    </g>
    <g id="ytick_6">
     <g id="line2d_14">
      <g>
       <use xlink:href="#mfe05efda3b" x="57.189425" y="112.592195" style="stroke: #000000; stroke-width: 0.8"/>
      </g>
     </g>
     <g id="text_15">
      <!-- 16.0 -->
      <g transform="translate(27.9238 116.391414) scale(0.1 -0.1)">
       <use xlink:href="#DejaVuSans-31"/>
       <use xlink:href="#DejaVuSans-36" transform="translate(63.623047 0)"/>
       <use xlink:href="#DejaVuSans-2e" transform="translate(127.246094 0)"/>
       <use xlink:href="#DejaVuSans-30" transform="translate(159.033203 0)"/>
      </g>
     </g>
    </g>
    <g id="text_16">
     <!-- $T_{surf}$ in °C -->
     <g transform="translate(20.3301 408.4272) rotate(-90) scale(0.1728 -0.1728)">
      <defs>
       <path id="DejaVuSans-Oblique-54" d="M 378 4666 
L 4325 4666 
L 4225 4134 
L 2559 4134 
L 1759 0 
L 1125 0 
L 1925 4134 
L 275 4134 
L 378 4666 
z
" transform="scale(0.015625)"/>
       <path id="DejaVuSans-Oblique-73" d="M 3200 3397 
L 3091 2853 
Q 2863 2978 2609 3040 
Q 2356 3103 2088 3103 
Q 1634 3103 1373 2948 
Q 1113 2794 1113 2528 
Q 1113 2219 1719 2053 
Q 1766 2041 1788 2034 
L 1972 1978 
Q 2547 1819 2739 1644 
Q 2931 1469 2931 1166 
Q 2931 609 2489 259 
Q 2047 -91 1331 -91 
Q 1053 -91 747 -37 
Q 441 16 72 128 
L 184 722 
Q 500 559 806 475 
Q 1113 391 1394 391 
Q 1816 391 2080 572 
Q 2344 753 2344 1031 
Q 2344 1331 1650 1516 
L 1591 1531 
L 1394 1581 
Q 956 1697 753 1886 
Q 550 2075 550 2369 
Q 550 2928 970 3256 
Q 1391 3584 2113 3584 
Q 2397 3584 2667 3537 
Q 2938 3491 3200 3397 
z
" transform="scale(0.015625)"/>
       <path id="DejaVuSans-Oblique-75" d="M 428 1388 
L 838 3500 
L 1416 3500 
L 1006 1409 
Q 975 1256 961 1147 
Q 947 1038 947 966 
Q 947 700 1109 554 
Q 1272 409 1569 409 
Q 2031 409 2368 721 
Q 2706 1034 2809 1563 
L 3194 3500 
L 3769 3500 
L 3091 0 
L 2516 0 
L 2631 550 
Q 2388 244 2052 76 
Q 1716 -91 1338 -91 
Q 878 -91 622 161 
Q 366 413 366 863 
Q 366 956 381 1097 
Q 397 1238 428 1388 
z
" transform="scale(0.015625)"/>
       <path id="DejaVuSans-Oblique-72" d="M 2853 2969 
Q 2766 3016 2653 3041 
Q 2541 3066 2413 3066 
Q 1953 3066 1609 2717 
Q 1266 2369 1153 1784 
L 800 0 
L 225 0 
L 909 3500 
L 1484 3500 
L 1375 2956 
Q 1603 3259 1920 3421 
Q 2238 3584 2597 3584 
Q 2691 3584 2781 3573 
Q 2872 3563 2963 3538 
L 2853 2969 
z
" transform="scale(0.015625)"/>
       <path id="DejaVuSans-Oblique-66" d="M 3059 4863 
L 2969 4384 
L 2419 4384 
Q 2106 4384 1964 4261 
Q 1822 4138 1753 3809 
L 1691 3500 
L 2638 3500 
L 2553 3053 
L 1606 3053 
L 1013 0 
L 434 0 
L 1031 3053 
L 481 3053 
L 563 3500 
L 1113 3500 
L 1159 3744 
Q 1278 4363 1576 4613 
Q 1875 4863 2516 4863 
L 3059 4863 
z
" transform="scale(0.015625)"/>
       <path id="DejaVuSans-20" transform="scale(0.015625)"/>
       <path id="DejaVuSans-69" d="M 603 3500 
L 1178 3500 
L 1178 0 
L 603 0 
L 603 3500 
z
M 603 4863 
L 1178 4863 
L 1178 4134 
L 603 4134 
L 603 4863 
z
" transform="scale(0.015625)"/>
       <path id="DejaVuSans-6e" d="M 3513 2113 
L 3513 0 
L 2938 0 
L 2938 2094 
Q 2938 2591 2744 2837 
Q 2550 3084 2163 3084 
Q 1697 3084 1428 2787 
Q 1159 2491 1159 1978 
L 1159 0 
L 581 0 
L 581 3500 
L 1159 3500 
L 1159 2956 
Q 1366 3272 1645 3428 
Q 1925 3584 2291 3584 
Q 2894 3584 3203 3211 
Q 3513 2838 3513 2113 
z
" transform="scale(0.015625)"/>
       <path id="DejaVuSans-b0" d="M 1600 4347 
Q 1350 4347 1178 4173 
Q 1006 4000 1006 3750 
Q 1006 3503 1178 3333 
Q 1350 3163 1600 3163 
Q 1850 3163 2022 3333 
Q 2194 3503 2194 3750 
Q 2194 3997 2020 4172 
Q 1847 4347 1600 4347 
z
M 1600 4750 
Q 1800 4750 1984 4673 
Q 2169 4597 2303 4453 
Q 2447 4313 2519 4134 
Q 2591 3956 2591 3750 
Q 2591 3338 2302 3052 
Q 2013 2766 1594 2766 
Q 1172 2766 890 3047 
Q 609 3328 609 3750 
Q 609 4169 896 4459 
Q 1184 4750 1600 4750 
z
" transform="scale(0.015625)"/>
       <path id="DejaVuSans-43" d="M 4122 4306 
L 4122 3641 
Q 3803 3938 3442 4084 
Q 3081 4231 2675 4231 
Q 1875 4231 1450 3742 
Q 1025 3253 1025 2328 
Q 1025 1406 1450 917 
Q 1875 428 2675 428 
Q 3081 428 3442 575 
Q 3803 722 4122 1019 
L 4122 359 
Q 3791 134 3420 21 
Q 3050 -91 2638 -91 
Q 1578 -91 968 557 
Q 359 1206 359 2328 
Q 359 3453 968 4101 
Q 1578 4750 2638 4750 
Q 3056 4750 3426 4639 
Q 3797 4528 4122 4306 
z
" transform="scale(0.015625)"/>
      </defs>
      <use xlink:href="#DejaVuSans-Oblique-54" transform="translate(0 0.015625)"/>
      <use xlink:href="#DejaVuSans-Oblique-73" transform="translate(61.083984 -16.390625) scale(0.7)"/>
      <use xlink:href="#DejaVuSans-Oblique-75" transform="translate(97.553711 -16.390625) scale(0.7)"/>
      <use xlink:href="#DejaVuSans-Oblique-72" transform="translate(141.918945 -16.390625) scale(0.7)"/>
      <use xlink:href="#DejaVuSans-Oblique-66" transform="translate(170.698242 -16.390625) scale(0.7)"/>
      <use xlink:href="#DejaVuSans-20" transform="translate(198.076172 0.015625)"/>
      <use xlink:href="#DejaVuSans-69" transform="translate(229.863281 0.015625)"/>
      <use xlink:href="#DejaVuSans-6e" transform="translate(257.646484 0.015625)"/>
      <use xlink:href="#DejaVuSans-20" transform="translate(321.025391 0.015625)"/>
      <use xlink:href="#DejaVuSans-b0" transform="translate(352.8125 0.015625)"/>
      <use xlink:href="#DejaVuSans-43" transform="translate(402.8125 0.015625)"/>
     </g>
    </g>
   </g>
   <g id="line2d_15">
    <path d="M 90.162152 631.854901 
L 99.0737 631.854935 
L 107.985248 631.85497 
L 116.896796 631.854935 
L 125.808344 631.854999 
L 134.719892 631.854951 
L 143.63144 631.854955 
L 152.542988 631.854961 
L 161.454536 631.854864 
L 170.366083 631.854884 
L 179.277631 631.854901 
L 188.189179 631.854949 
L 197.100727 631.854923 
L 206.012275 631.854962 
L 214.923823 631.854921 
L 223.835371 631.85498 
L 232.746919 631.854929 
L 241.658467 631.854923 
L 250.570015 631.85485 
L 259.481563 631.854939 
L 268.393111 631.855029 
L 277.304658 631.855006 
L 286.216206 631.854912 
L 295.127754 631.854812 
L 304.039302 631.85489 
L 312.95085 631.854921 
L 321.862398 631.855038 
L 330.773946 631.854888 
L 339.685494 631.854858 
L 348.597042 631.854892 
L 357.50859 631.854975 
L 366.420138 631.855015 
L 375.331685 631.854974 
L 384.243233 631.855008 
L 393.154781 631.854857 
L 402.066329 631.854891 
L 410.977877 631.854875 
L 419.889425 631.854944 
L 428.800973 631.855005 
L 437.712521 631.854977 
L 446.624069 631.854903 
L 455.535617 631.854853 
L 464.447165 631.854862 
L 473.358712 631.854868 
L 482.27026 631.85489 
L 491.181808 631.854825 
L 500.093356 631.854863 
L 509.004904 631.854907 
L 517.916452 631.854882 
L 526.828 631.85488 
L 535.739548 631.854867 
L 544.651096 631.8549 
L 553.562644 631.854932 
L 562.474192 631.854833 
L 571.385739 631.85489 
L 580.297287 631.854945 
L 589.208835 631.854904 
L 598.120383 631.854883 
L 607.031931 631.854918 
L 615.943479 631.854888 
L 624.855027 631.854879 
L 633.766575 631.854949 
L 642.678123 631.854934 
L 651.589671 631.854936 
L 660.501219 631.85493 
L 669.412767 631.854891 
L 678.324314 631.854826 
L 687.235862 631.854953 
L 696.14741 631.854858 
L 705.058958 631.854866 
L 713.970506 631.854912 
L 722.882054 631.8549 
L 731.793602 631.854798 
L 740.70515 631.854792 
L 749.616698 631.85485 
" clip-path="url(#p715bd49baf)" style="fill: none; stroke: #1f77b4; stroke-width: 3; stroke-linecap: square"/>
   </g>
   <g id="line2d_16">
    <path d="M 90.162152 490.937777 
L 99.0737 402.512408 
L 107.985248 366.291649 
L 116.896796 338.876471 
L 125.808344 314.896377 
L 134.719892 293.29382 
L 143.63144 273.675275 
L 152.542988 255.792733 
L 161.454536 239.439937 
L 170.366083 224.444793 
L 179.277631 210.684491 
L 188.189179 198.0318 
L 197.100727 186.386826 
L 206.012275 175.653601 
L 214.923823 165.754303 
L 223.835371 156.60499 
L 232.746919 148.139132 
L 241.658467 140.302215 
L 250.570015 133.04604 
L 259.481563 126.3358 
L 268.393111 120.127731 
L 277.304658 114.378886 
L 286.216206 109.052377 
L 295.127754 104.101325 
L 304.039302 99.512636 
L 312.95085 95.256068 
L 321.862398 91.302446 
L 330.773946 87.629597 
L 339.685494 84.217393 
L 348.597042 81.053072 
L 357.50859 78.111836 
L 366.420138 75.377962 
L 375.331685 72.83289 
L 384.243233 70.467554 
L 393.154781 68.274428 
L 402.066329 66.234705 
L 410.977877 64.335234 
L 419.889425 62.56308 
L 428.800973 60.90937 
L 437.712521 59.372074 
L 446.624069 57.943161 
L 455.535617 56.610309 
L 464.447165 55.371361 
L 473.358712 54.212642 
L 482.27026 53.134964 
L 491.181808 52.130232 
L 500.093356 51.195408 
L 509.004904 50.324127 
L 517.916452 49.513 
L 526.828 48.755511 
L 535.739548 48.049713 
L 544.651096 47.391384 
L 553.562644 46.776517 
L 562.474192 46.201415 
L 571.385739 45.664064 
L 580.297287 45.162386 
L 589.208835 44.694017 
L 598.120383 44.256644 
L 607.031931 43.846475 
L 615.943479 43.464817 
L 624.855027 43.108421 
L 633.766575 42.775123 
L 642.678123 42.46315 
L 651.589671 42.172009 
L 660.501219 41.899308 
L 669.412767 41.644209 
L 678.324314 41.406239 
L 687.235862 41.183827 
L 696.14741 40.976474 
L 705.058958 40.781411 
L 713.970506 40.593041 
L 722.882054 40.416514 
L 731.793602 40.25436 
L 740.70515 40.10252 
L 749.616698 39.96 
" clip-path="url(#p715bd49baf)" style="fill: none; stroke: #ff0000; stroke-width: 3; stroke-linecap: square"/>
   </g>
   <g id="line2d_17">
    <path d="M 90.162152 631.996199 
L 99.0737 631.961019 
L 107.985248 631.967057 
L 116.896796 631.972302 
L 125.808344 631.976465 
L 134.719892 631.979351 
L 143.63144 631.981239 
L 152.542988 631.982544 
L 161.454536 631.983672 
L 170.366083 631.984974 
L 179.277631 631.986147 
L 188.189179 631.987326 
L 197.100727 631.988384 
L 206.012275 631.989408 
L 214.923823 631.990439 
" clip-path="url(#p715bd49baf)" style="fill: none; stroke-dasharray: 5.55,2.4; stroke-dashoffset: 0; stroke: #000000; stroke-width: 1.5"/>
   </g>
   <g id="line2d_18">
    <path d="M 223.835371 552.494322 
L 232.746919 468.414018 
L 241.658467 432.251017 
L 250.570015 404.813929 
L 259.481563 380.761234 
L 268.393111 359.065155 
L 277.304658 339.342373 
L 286.216206 321.361587 
L 295.127754 304.924098 
L 304.039302 289.854767 
L 312.95085 276.031367 
L 321.862398 263.323649 
L 330.773946 251.630718 
L 339.685494 240.847924 
L 348.597042 230.894381 
L 357.50859 221.71417 
L 366.420138 213.21576 
L 375.331685 205.367551 
L 384.243233 198.101437 
L 393.154781 191.38174 
L 402.066329 185.162495 
L 410.977877 179.4031 
L 419.889425 174.065482 
L 428.800973 169.110575 
L 437.712521 164.517505 
L 446.624069 160.254553 
L 455.535617 156.296382 
L 464.447165 152.620444 
L 473.358712 149.207695 
L 482.27026 146.042056 
L 491.181808 143.096112 
L 500.093356 140.362021 
L 509.004904 137.817386 
L 517.916452 135.450869 
L 526.828 133.253074 
L 535.739548 131.209238 
L 544.651096 129.310548 
L 553.562644 127.540021 
L 562.474192 125.888216 
L 571.385739 124.349086 
L 580.297287 122.917433 
L 589.208835 121.580076 
L 598.120383 120.334962 
L 607.031931 119.175155 
L 615.943479 118.096306 
L 624.855027 117.090713 
L 633.766575 116.153015 
L 642.678123 115.279574 
L 651.589671 114.468407 
L 660.501219 113.710631 
" clip-path="url(#p715bd49baf)" style="fill: none; stroke-dasharray: 1.5,2.475; stroke-dashoffset: 0; stroke: #ff7f0e; stroke-width: 1.5"/>
   </g>
   <g id="line2d_19">
    <path d="M 223.835371 498.420401 
L 232.746919 414.604366 
L 241.658467 379.443021 
L 250.570015 352.700583 
L 259.481563 329.272371 
L 268.393111 308.145877 
L 277.304658 288.950122 
L 286.216206 271.439355 
L 295.127754 255.421228 
L 304.039302 240.728538 
L 312.95085 227.241948 
L 321.862398 214.836762 
L 330.773946 203.417422 
L 339.685494 192.89042 
L 348.597042 183.178618 
L 357.50859 174.205755 
L 366.420138 165.90898 
L 375.331685 158.23189 
L 384.243233 151.117184 
L 393.154781 144.540068 
L 402.066329 138.450673 
L 410.977877 132.8077 
L 419.889425 127.577898 
L 428.800973 122.725984 
L 437.712521 118.222222 
L 446.624069 114.040195 
L 455.535617 110.157873 
L 464.447165 106.549246 
L 473.358712 103.195273 
L 482.27026 100.082106 
L 491.181808 97.189451 
L 500.093356 94.502364 
L 509.004904 91.999298 
L 517.916452 89.671511 
L 526.828 87.50003 
L 535.739548 85.487313 
L 544.651096 83.616613 
L 553.562644 81.871503 
L 562.474192 80.247943 
L 571.385739 78.734331 
L 580.297287 77.3272 
L 589.208835 76.014474 
L 598.120383 74.793751 
L 607.031931 73.655238 
L 615.943479 72.593959 
L 624.855027 71.605098 
L 633.766575 70.685092 
L 642.678123 69.826815 
L 651.589671 69.027611 
L 660.501219 68.279356 
" clip-path="url(#p715bd49baf)" style="fill: none; stroke-dasharray: 1.5,2.475; stroke-dashoffset: 0; stroke: #2ca02c; stroke-width: 1.5"/>
   </g>
   <g id="line2d_20">
    <path d="M 223.835371 561.002109 
L 232.746919 485.966775 
L 241.658467 451.766068 
L 250.570015 425.721407 
L 259.481563 402.792228 
L 268.393111 382.01488 
L 277.304658 363.056992 
L 286.216206 345.701246 
L 295.127754 329.778937 
L 304.039302 315.141601 
L 312.95085 301.66853 
L 321.862398 289.262121 
L 330.773946 277.818377 
L 339.685494 267.254426 
L 348.597042 257.499994 
L 357.50859 248.481009 
L 366.420138 240.1318 
L 375.331685 232.401678 
L 384.243233 225.241645 
L 393.154781 218.607526 
L 402.066329 212.467784 
L 410.977877 206.778583 
L 419.889425 201.505173 
L 428.800973 196.607718 
L 437.712521 192.062672 
L 446.624069 187.846344 
L 455.535617 183.929236 
L 464.447165 180.290209 
L 473.358712 176.909313 
L 482.27026 173.767986 
L 491.181808 170.851573 
L 500.093356 168.139755 
L 509.004904 165.618201 
L 517.916452 163.271768 
L 526.828 161.094288 
L 535.739548 159.068635 
L 544.651096 157.180721 
L 553.562644 155.423043 
L 562.474192 153.784647 
L 571.385739 152.258598 
L 580.297287 150.838885 
L 589.208835 149.513595 
L 598.120383 148.281566 
L 607.031931 147.124086 
L 615.943479 146.050895 
L 624.855027 145.053089 
L 633.766575 144.124651 
L 642.678123 143.25893 
L 651.589671 142.45229 
L 660.501219 141.699616 
" clip-path="url(#p715bd49baf)" style="fill: none; stroke-dasharray: 1.5,2.475; stroke-dashoffset: 0; stroke: #d62728; stroke-width: 1.5"/>
   </g>
   <g id="line2d_21">
    <path d="M 223.835371 561.182507 
L 232.746919 546.710744 
L 241.658467 544.219287 
L 250.570015 542.496747 
L 259.481563 541.143048 
L 268.393111 540.043932 
L 277.304658 539.133201 
L 286.216206 538.370524 
L 295.127754 537.724724 
L 304.039302 537.172993 
L 312.95085 536.695874 
L 321.862398 536.283448 
L 330.773946 535.922552 
L 339.685494 535.605809 
L 348.597042 535.325326 
L 357.50859 535.075212 
L 366.420138 534.850054 
L 375.331685 534.649113 
L 384.243233 534.466676 
L 393.154781 534.302791 
L 402.066329 534.154173 
L 410.977877 534.020137 
L 419.889425 533.898725 
L 428.800973 533.78754 
L 437.712521 533.685685 
L 446.624069 533.592638 
L 455.535617 533.506946 
L 464.447165 533.428616 
L 473.358712 533.356576 
L 482.27026 533.290133 
L 491.181808 533.229323 
L 500.093356 533.17272 
L 509.004904 533.120534 
L 517.916452 533.072457 
L 526.828 533.028222 
L 535.739548 532.987325 
L 544.651096 532.949653 
L 553.562644 532.914713 
L 562.474192 532.882064 
L 571.385739 532.851781 
L 580.297287 532.823886 
L 589.208835 532.797619 
L 598.120383 532.773574 
L 607.031931 532.751086 
L 615.943479 532.730195 
L 624.855027 532.710993 
L 633.766575 532.693176 
L 642.678123 532.676479 
L 651.589671 532.660961 
L 660.501219 532.646692 
" clip-path="url(#p715bd49baf)" style="fill: none; stroke-dasharray: 1.5,2.475; stroke-dashoffset: 0; stroke: #9467bd; stroke-width: 1.5"/>
   </g>
   <g id="line2d_22">
    <path d="M 223.835371 624.62828 
L 232.746919 619.780335 
L 241.658467 618.643715 
L 250.570015 617.912324 
L 259.481563 617.313612 
L 268.393111 616.793277 
L 277.304658 616.33159 
L 286.216206 615.917472 
L 295.127754 615.546322 
L 304.039302 615.21118 
L 312.95085 614.907243 
L 321.862398 614.630577 
L 330.773946 614.378149 
L 339.685494 614.147757 
L 348.597042 613.938503 
L 357.50859 613.745593 
L 366.420138 613.56635 
L 375.331685 613.401862 
L 384.243233 613.249821 
L 393.154781 613.111105 
L 402.066329 612.983754 
L 410.977877 612.866753 
L 419.889425 612.758522 
L 428.800973 612.65783 
L 437.712521 612.56471 
L 446.624069 612.478289 
L 455.535617 612.398127 
L 464.447165 612.324419 
L 473.358712 612.25592 
L 482.27026 612.192457 
L 491.181808 612.133618 
L 500.093356 612.079328 
L 509.004904 612.02895 
L 517.916452 611.9822 
L 526.828 611.93917 
L 535.739548 611.899325 
L 544.651096 611.862454 
L 553.562644 611.827989 
L 562.474192 611.795755 
L 571.385739 611.765686 
L 580.297287 611.738048 
L 589.208835 611.712225 
L 598.120383 611.688266 
L 607.031931 611.665951 
L 615.943479 611.6452 
L 624.855027 611.625911 
L 633.766575 611.60812 
L 642.678123 611.591325 
L 651.589671 611.575816 
L 660.501219 611.56138 
" clip-path="url(#p715bd49baf)" style="fill: none; stroke-dasharray: 1.5,2.475; stroke-dashoffset: 0; stroke: #8c564b; stroke-width: 1.5"/>
   </g>
   <g id="line2d_23">
    <path d="M 223.835371 629.651598 
L 232.746919 624.485 
L 241.658467 623.280634 
L 250.570015 622.334895 
L 259.481563 621.563539 
L 268.393111 620.934511 
L 277.304658 620.42093 
L 286.216206 620.002804 
L 295.127754 619.662974 
L 304.039302 619.383321 
L 312.95085 619.153541 
L 321.862398 618.965756 
L 330.773946 618.811506 
L 339.685494 618.684981 
L 348.597042 618.580844 
L 357.50859 618.495364 
L 366.420138 618.425042 
L 375.331685 618.366593 
L 384.243233 618.318501 
L 393.154781 618.278724 
L 402.066329 618.245661 
L 410.977877 618.21804 
L 419.889425 618.195034 
L 428.800973 618.175768 
L 437.712521 618.159434 
L 446.624069 618.145934 
L 455.535617 618.13471 
L 464.447165 618.125235 
L 473.358712 618.117348 
L 482.27026 618.110508 
L 491.181808 618.10485 
L 500.093356 618.10006 
L 509.004904 618.09607 
L 517.916452 618.092467 
L 526.828 618.089362 
L 535.739548 618.086786 
L 544.651096 618.084504 
L 553.562644 618.082525 
L 562.474192 618.080633 
L 571.385739 618.079162 
L 580.297287 618.077946 
L 589.208835 618.076819 
L 598.120383 618.075825 
L 607.031931 618.074947 
L 615.943479 618.074216 
L 624.855027 618.073528 
L 633.766575 618.072988 
L 642.678123 618.072461 
L 651.589671 618.071911 
L 660.501219 618.071542 
" clip-path="url(#p715bd49baf)" style="fill: none; stroke-dasharray: 1.5,2.475; stroke-dashoffset: 0; stroke: #e377c2; stroke-width: 1.5"/>
   </g>
   <g id="line2d_24">
    <path d="M 223.835371 690.609829 
L 232.746919 694.953849 
L 241.658467 695.102542 
L 250.570015 695.16 
L 259.481563 695.1594 
L 268.393111 695.124217 
L 277.304658 695.073557 
L 286.216206 695.017384 
L 295.127754 694.962399 
L 304.039302 694.909913 
L 312.95085 694.861386 
L 321.862398 694.817366 
L 330.773946 694.778173 
L 339.685494 694.744131 
L 348.597042 694.714645 
L 357.50859 694.688866 
L 366.420138 694.666622 
L 375.331685 694.647577 
L 384.243233 694.631466 
L 393.154781 694.617807 
L 402.066329 694.606178 
L 410.977877 694.595948 
L 419.889425 694.587251 
L 428.800973 694.579892 
L 437.712521 694.573608 
L 446.624069 694.568136 
L 455.535617 694.563525 
L 464.447165 694.559677 
L 473.358712 694.556299 
L 482.27026 694.553498 
L 491.181808 694.550804 
L 500.093356 694.548717 
L 509.004904 694.546762 
L 517.916452 694.545216 
L 526.828 694.543898 
L 535.739548 694.542659 
L 544.651096 694.541635 
L 553.562644 694.540773 
L 562.474192 694.540034 
L 571.385739 694.539397 
L 580.297287 694.538978 
L 589.208835 694.538426 
L 598.120383 694.538021 
L 607.031931 694.537556 
L 615.943479 694.537215 
L 624.855027 694.536881 
L 633.766575 694.536673 
L 642.678123 694.536454 
L 651.589671 694.53627 
L 660.501219 694.536148 
" clip-path="url(#p715bd49baf)" style="fill: none; stroke-dasharray: 1.5,2.475; stroke-dashoffset: 0; stroke: #7f7f7f; stroke-width: 1.5"/>
   </g>
   <g id="line2d_25">
    <path d="M 223.835371 563.591647 
L 232.746919 552.400202 
L 241.658467 550.920182 
L 250.570015 549.837994 
L 259.481563 549.014394 
L 268.393111 548.379737 
L 277.304658 547.887757 
L 286.216206 547.501873 
L 295.127754 547.198231 
L 304.039302 546.957995 
L 312.95085 546.767153 
L 321.862398 546.614078 
L 330.773946 546.490682 
L 339.685494 546.391272 
L 348.597042 546.310431 
L 357.50859 546.24507 
L 366.420138 546.191734 
L 375.331685 546.14769 
L 384.243233 546.111295 
L 393.154781 546.080602 
L 402.066329 546.055744 
L 410.977877 546.035032 
L 419.889425 546.017959 
L 428.800973 546.003507 
L 437.712521 545.991633 
L 446.624069 545.981555 
L 455.535617 545.97277 
L 464.447165 545.965456 
L 473.358712 545.959238 
L 482.27026 545.953915 
L 491.181808 545.949266 
L 500.093356 545.945356 
L 509.004904 545.941932 
L 517.916452 545.938896 
L 526.828 545.936355 
L 535.739548 545.934055 
L 544.651096 545.932228 
L 553.562644 545.930477 
L 562.474192 545.928667 
L 571.385739 545.927284 
L 580.297287 545.926082 
L 589.208835 545.924833 
L 598.120383 545.923892 
L 607.031931 545.923016 
L 615.943479 545.922238 
L 624.855027 545.921492 
L 633.766575 545.92091 
L 642.678123 545.920319 
L 651.589671 545.919694 
L 660.501219 545.919153 
" clip-path="url(#p715bd49baf)" style="fill: none; stroke-dasharray: 1.5,2.475; stroke-dashoffset: 0; stroke: #bcbd22; stroke-width: 1.5"/>
   </g>
   <g id="patch_3">
    <path d="M 57.189425 727.92 
L 57.189425 7.2 
" style="fill: none; stroke: #000000; stroke-width: 0.8; stroke-linejoin: miter; stroke-linecap: square"/>
   </g>
   <g id="patch_4">
    <path d="M 782.589425 727.92 
L 782.589425 7.2 
" style="fill: none; stroke: #000000; stroke-width: 0.8; stroke-linejoin: miter; stroke-linecap: square"/>
   </g>
   <g id="patch_5">
    <path d="M 57.189425 727.92 
L 782.589425 727.92 
" style="fill: none; stroke: #000000; stroke-width: 0.8; stroke-linejoin: miter; stroke-linecap: square"/>
   </g>
   <g id="patch_6">
    <path d="M 57.189425 7.2 
L 782.589425 7.2 
" style="fill: none; stroke: #000000; stroke-width: 0.8; stroke-linejoin: miter; stroke-linecap: square"/>
   </g>
   <g id="legend_1">
    <g id="patch_7">
     <path d="M 64.189425 176.659375 
L 159.164425 176.659375 
Q 161.164425 176.659375 161.164425 174.659375 
L 161.164425 14.2 
Q 161.164425 12.2 159.164425 12.2 
L 64.189425 12.2 
Q 62.189425 12.2 62.189425 14.2 
L 62.189425 174.659375 
Q 62.189425 176.659375 64.189425 176.659375 
z
" style="fill: #ffffff; opacity: 0.8; stroke: #cccccc; stroke-linejoin: miter"/>
    </g>
    <g id="line2d_26">
     <path d="M 66.189425 20.298437 
L 76.189425 20.298437 
L 86.189425 20.298437 
" style="fill: none; stroke: #1f77b4; stroke-width: 3; stroke-linecap: square"/>
    </g>
    <g id="text_17">
     <!-- CTRL -->
     <g transform="translate(94.189425 23.798437) scale(0.1 -0.1)">
      <defs>
       <path id="DejaVuSans-54" d="M -19 4666 
L 3928 4666 
L 3928 4134 
L 2272 4134 
L 2272 0 
L 1638 0 
L 1638 4134 
L -19 4134 
L -19 4666 
z
" transform="scale(0.015625)"/>
       <path id="DejaVuSans-52" d="M 2841 2188 
Q 3044 2119 3236 1894 
Q 3428 1669 3622 1275 
L 4263 0 
L 3584 0 
L 2988 1197 
Q 2756 1666 2539 1819 
Q 2322 1972 1947 1972 
L 1259 1972 
L 1259 0 
L 628 0 
L 628 4666 
L 2053 4666 
Q 2853 4666 3247 4331 
Q 3641 3997 3641 3322 
Q 3641 2881 3436 2590 
Q 3231 2300 2841 2188 
z
M 1259 4147 
L 1259 2491 
L 2053 2491 
Q 2509 2491 2742 2702 
Q 2975 2913 2975 3322 
Q 2975 3731 2742 3939 
Q 2509 4147 2053 4147 
L 1259 4147 
z
" transform="scale(0.015625)"/>
       <path id="DejaVuSans-4c" d="M 628 4666 
L 1259 4666 
L 1259 531 
L 3531 531 
L 3531 0 
L 628 0 
L 628 4666 
z
" transform="scale(0.015625)"/>
      </defs>
      <use xlink:href="#DejaVuSans-43"/>
      <use xlink:href="#DejaVuSans-54" transform="translate(69.824219 0)"/>
      <use xlink:href="#DejaVuSans-52" transform="translate(130.908203 0)"/>
      <use xlink:href="#DejaVuSans-4c" transform="translate(200.390625 0)"/>
     </g>
    </g>
    <g id="line2d_27">
     <path d="M 66.189425 34.976562 
L 76.189425 34.976562 
L 86.189425 34.976562 
" style="fill: none; stroke: #ff0000; stroke-width: 3; stroke-linecap: square"/>
    </g>
    <g id="text_18">
     <!-- 2xCO2 -->
     <g transform="translate(94.189425 38.476562) scale(0.1 -0.1)">
      <defs>
       <path id="DejaVuSans-78" d="M 3513 3500 
L 2247 1797 
L 3578 0 
L 2900 0 
L 1881 1375 
L 863 0 
L 184 0 
L 1544 1831 
L 300 3500 
L 978 3500 
L 1906 2253 
L 2834 3500 
L 3513 3500 
z
" transform="scale(0.015625)"/>
       <path id="DejaVuSans-4f" d="M 2522 4238 
Q 1834 4238 1429 3725 
Q 1025 3213 1025 2328 
Q 1025 1447 1429 934 
Q 1834 422 2522 422 
Q 3209 422 3611 934 
Q 4013 1447 4013 2328 
Q 4013 3213 3611 3725 
Q 3209 4238 2522 4238 
z
M 2522 4750 
Q 3503 4750 4090 4092 
Q 4678 3434 4678 2328 
Q 4678 1225 4090 567 
Q 3503 -91 2522 -91 
Q 1538 -91 948 565 
Q 359 1222 359 2328 
Q 359 3434 948 4092 
Q 1538 4750 2522 4750 
z
" transform="scale(0.015625)"/>
      </defs>
      <use xlink:href="#DejaVuSans-32"/>
      <use xlink:href="#DejaVuSans-78" transform="translate(63.623047 0)"/>
      <use xlink:href="#DejaVuSans-43" transform="translate(122.802734 0)"/>
      <use xlink:href="#DejaVuSans-4f" transform="translate(192.626953 0)"/>
      <use xlink:href="#DejaVuSans-32" transform="translate(271.337891 0)"/>
     </g>
    </g>
    <g id="line2d_28">
     <path d="M 66.189425 49.654688 
L 76.189425 49.654688 
L 86.189425 49.654688 
" style="fill: none; stroke-dasharray: 5.55,2.4; stroke-dashoffset: 0; stroke: #000000; stroke-width: 1.5"/>
    </g>
    <g id="text_19">
     <!-- Spinup -->
     <g transform="translate(94.189425 53.154688) scale(0.1 -0.1)">
      <defs>
       <path id="DejaVuSans-53" d="M 3425 4513 
L 3425 3897 
Q 3066 4069 2747 4153 
Q 2428 4238 2131 4238 
Q 1616 4238 1336 4038 
Q 1056 3838 1056 3469 
Q 1056 3159 1242 3001 
Q 1428 2844 1947 2747 
L 2328 2669 
Q 3034 2534 3370 2195 
Q 3706 1856 3706 1288 
Q 3706 609 3251 259 
Q 2797 -91 1919 -91 
Q 1588 -91 1214 -16 
Q 841 59 441 206 
L 441 856 
Q 825 641 1194 531 
Q 1563 422 1919 422 
Q 2459 422 2753 634 
Q 3047 847 3047 1241 
Q 3047 1584 2836 1778 
Q 2625 1972 2144 2069 
L 1759 2144 
Q 1053 2284 737 2584 
Q 422 2884 422 3419 
Q 422 4038 858 4394 
Q 1294 4750 2059 4750 
Q 2388 4750 2728 4690 
Q 3069 4631 3425 4513 
z
" transform="scale(0.015625)"/>
       <path id="DejaVuSans-70" d="M 1159 525 
L 1159 -1331 
L 581 -1331 
L 581 3500 
L 1159 3500 
L 1159 2969 
Q 1341 3281 1617 3432 
Q 1894 3584 2278 3584 
Q 2916 3584 3314 3078 
Q 3713 2572 3713 1747 
Q 3713 922 3314 415 
Q 2916 -91 2278 -91 
Q 1894 -91 1617 61 
Q 1341 213 1159 525 
z
M 3116 1747 
Q 3116 2381 2855 2742 
Q 2594 3103 2138 3103 
Q 1681 3103 1420 2742 
Q 1159 2381 1159 1747 
Q 1159 1113 1420 752 
Q 1681 391 2138 391 
Q 2594 391 2855 752 
Q 3116 1113 3116 1747 
z
" transform="scale(0.015625)"/>
       <path id="DejaVuSans-75" d="M 544 1381 
L 544 3500 
L 1119 3500 
L 1119 1403 
Q 1119 906 1312 657 
Q 1506 409 1894 409 
Q 2359 409 2629 706 
Q 2900 1003 2900 1516 
L 2900 3500 
L 3475 3500 
L 3475 0 
L 2900 0 
L 2900 538 
Q 2691 219 2414 64 
Q 2138 -91 1772 -91 
Q 1169 -91 856 284 
Q 544 659 544 1381 
z
M 1991 3584 
L 1991 3584 
z
" transform="scale(0.015625)"/>
      </defs>
      <use xlink:href="#DejaVuSans-53"/>
      <use xlink:href="#DejaVuSans-70" transform="translate(63.476562 0)"/>
      <use xlink:href="#DejaVuSans-69" transform="translate(126.953125 0)"/>
      <use xlink:href="#DejaVuSans-6e" transform="translate(154.736328 0)"/>
      <use xlink:href="#DejaVuSans-75" transform="translate(218.115234 0)"/>
      <use xlink:href="#DejaVuSans-70" transform="translate(281.494141 0)"/>
     </g>
    </g>
    <g id="line2d_29">
     <path d="M 66.189425 64.332812 
L 76.189425 64.332812 
L 86.189425 64.332812 
" style="fill: none; stroke-dasharray: 1.5,2.475; stroke-dashoffset: 0; stroke: #ff7f0e; stroke-width: 1.5"/>
    </g>
    <g id="text_20">
     <!-- X2-A2-V2-C2 -->
     <g transform="translate(94.189425 67.832812) scale(0.1 -0.1)">
      <defs>
       <path id="DejaVuSans-58" d="M 403 4666 
L 1081 4666 
L 2241 2931 
L 3406 4666 
L 4084 4666 
L 2584 2425 
L 4184 0 
L 3506 0 
L 2194 1984 
L 872 0 
L 191 0 
L 1856 2491 
L 403 4666 
z
" transform="scale(0.015625)"/>
       <path id="DejaVuSans-2d" d="M 313 2009 
L 1997 2009 
L 1997 1497 
L 313 1497 
L 313 2009 
z
" transform="scale(0.015625)"/>
       <path id="DejaVuSans-41" d="M 2188 4044 
L 1331 1722 
L 3047 1722 
L 2188 4044 
z
M 1831 4666 
L 2547 4666 
L 4325 0 
L 3669 0 
L 3244 1197 
L 1141 1197 
L 716 0 
L 50 0 
L 1831 4666 
z
" transform="scale(0.015625)"/>
       <path id="DejaVuSans-56" d="M 1831 0 
L 50 4666 
L 709 4666 
L 2188 738 
L 3669 4666 
L 4325 4666 
L 2547 0 
L 1831 0 
z
" transform="scale(0.015625)"/>
      </defs>
      <use xlink:href="#DejaVuSans-58"/>
      <use xlink:href="#DejaVuSans-32" transform="translate(68.505859 0)"/>
      <use xlink:href="#DejaVuSans-2d" transform="translate(132.128906 0)"/>
      <use xlink:href="#DejaVuSans-41" transform="translate(165.962891 0)"/>
      <use xlink:href="#DejaVuSans-32" transform="translate(234.371094 0)"/>
      <use xlink:href="#DejaVuSans-2d" transform="translate(297.994141 0)"/>
      <use xlink:href="#DejaVuSans-56" transform="translate(328.203125 0)"/>
      <use xlink:href="#DejaVuSans-32" transform="translate(396.611328 0)"/>
      <use xlink:href="#DejaVuSans-2d" transform="translate(460.234375 0)"/>
      <use xlink:href="#DejaVuSans-43" transform="translate(496.318359 0)"/>
      <use xlink:href="#DejaVuSans-32" transform="translate(566.142578 0)"/>
     </g>
    </g>
    <g id="line2d_30">
     <path d="M 66.189425 79.010937 
L 76.189425 79.010937 
L 86.189425 79.010937 
" style="fill: none; stroke-dasharray: 1.5,2.475; stroke-dashoffset: 0; stroke: #2ca02c; stroke-width: 1.5"/>
    </g>
    <g id="text_21">
     <!-- X2-A1-V2-C1 -->
     <g transform="translate(94.189425 82.510937) scale(0.1 -0.1)">
      <use xlink:href="#DejaVuSans-58"/>
      <use xlink:href="#DejaVuSans-32" transform="translate(68.505859 0)"/>
      <use xlink:href="#DejaVuSans-2d" transform="translate(132.128906 0)"/>
      <use xlink:href="#DejaVuSans-41" transform="translate(165.962891 0)"/>
      <use xlink:href="#DejaVuSans-31" transform="translate(234.371094 0)"/>
      <use xlink:href="#DejaVuSans-2d" transform="translate(297.994141 0)"/>
      <use xlink:href="#DejaVuSans-56" transform="translate(328.203125 0)"/>
      <use xlink:href="#DejaVuSans-32" transform="translate(396.611328 0)"/>
      <use xlink:href="#DejaVuSans-2d" transform="translate(460.234375 0)"/>
      <use xlink:href="#DejaVuSans-43" transform="translate(496.318359 0)"/>
      <use xlink:href="#DejaVuSans-31" transform="translate(566.142578 0)"/>
     </g>
    </g>
    <g id="line2d_31">
     <path d="M 66.189425 93.689062 
L 76.189425 93.689062 
L 86.189425 93.689062 
" style="fill: none; stroke-dasharray: 1.5,2.475; stroke-dashoffset: 0; stroke: #d62728; stroke-width: 1.5"/>
    </g>
    <g id="text_22">
     <!-- X1-A1-V2-C1 -->
     <g transform="translate(94.189425 97.189062) scale(0.1 -0.1)">
      <use xlink:href="#DejaVuSans-58"/>
      <use xlink:href="#DejaVuSans-31" transform="translate(68.505859 0)"/>
      <use xlink:href="#DejaVuSans-2d" transform="translate(132.128906 0)"/>
      <use xlink:href="#DejaVuSans-41" transform="translate(165.962891 0)"/>
      <use xlink:href="#DejaVuSans-31" transform="translate(234.371094 0)"/>
      <use xlink:href="#DejaVuSans-2d" transform="translate(297.994141 0)"/>
      <use xlink:href="#DejaVuSans-56" transform="translate(328.203125 0)"/>
      <use xlink:href="#DejaVuSans-32" transform="translate(396.611328 0)"/>
      <use xlink:href="#DejaVuSans-2d" transform="translate(460.234375 0)"/>
      <use xlink:href="#DejaVuSans-43" transform="translate(496.318359 0)"/>
      <use xlink:href="#DejaVuSans-31" transform="translate(566.142578 0)"/>
     </g>
    </g>
    <g id="line2d_32">
     <path d="M 66.189425 108.367188 
L 76.189425 108.367188 
L 86.189425 108.367188 
" style="fill: none; stroke-dasharray: 1.5,2.475; stroke-dashoffset: 0; stroke: #9467bd; stroke-width: 1.5"/>
    </g>
    <g id="text_23">
     <!-- X2-A2-V1-C1 -->
     <g transform="translate(94.189425 111.867188) scale(0.1 -0.1)">
      <use xlink:href="#DejaVuSans-58"/>
      <use xlink:href="#DejaVuSans-32" transform="translate(68.505859 0)"/>
      <use xlink:href="#DejaVuSans-2d" transform="translate(132.128906 0)"/>
      <use xlink:href="#DejaVuSans-41" transform="translate(165.962891 0)"/>
      <use xlink:href="#DejaVuSans-32" transform="translate(234.371094 0)"/>
      <use xlink:href="#DejaVuSans-2d" transform="translate(297.994141 0)"/>
      <use xlink:href="#DejaVuSans-56" transform="translate(328.203125 0)"/>
      <use xlink:href="#DejaVuSans-31" transform="translate(396.611328 0)"/>
      <use xlink:href="#DejaVuSans-2d" transform="translate(460.234375 0)"/>
      <use xlink:href="#DejaVuSans-43" transform="translate(496.318359 0)"/>
      <use xlink:href="#DejaVuSans-31" transform="translate(566.142578 0)"/>
     </g>
    </g>
    <g id="line2d_33">
     <path d="M 66.189425 123.045313 
L 76.189425 123.045313 
L 86.189425 123.045313 
" style="fill: none; stroke-dasharray: 1.5,2.475; stroke-dashoffset: 0; stroke: #8c564b; stroke-width: 1.5"/>
    </g>
    <g id="text_24">
     <!-- X1-A2-V1-C1 -->
     <g transform="translate(94.189425 126.545313) scale(0.1 -0.1)">
      <use xlink:href="#DejaVuSans-58"/>
      <use xlink:href="#DejaVuSans-31" transform="translate(68.505859 0)"/>
      <use xlink:href="#DejaVuSans-2d" transform="translate(132.128906 0)"/>
      <use xlink:href="#DejaVuSans-41" transform="translate(165.962891 0)"/>
      <use xlink:href="#DejaVuSans-32" transform="translate(234.371094 0)"/>
      <use xlink:href="#DejaVuSans-2d" transform="translate(297.994141 0)"/>
      <use xlink:href="#DejaVuSans-56" transform="translate(328.203125 0)"/>
      <use xlink:href="#DejaVuSans-31" transform="translate(396.611328 0)"/>
      <use xlink:href="#DejaVuSans-2d" transform="translate(460.234375 0)"/>
      <use xlink:href="#DejaVuSans-43" transform="translate(496.318359 0)"/>
      <use xlink:href="#DejaVuSans-31" transform="translate(566.142578 0)"/>
     </g>
    </g>
    <g id="line2d_34">
     <path d="M 66.189425 137.723437 
L 76.189425 137.723437 
L 86.189425 137.723437 
" style="fill: none; stroke-dasharray: 1.5,2.475; stroke-dashoffset: 0; stroke: #e377c2; stroke-width: 1.5"/>
    </g>
    <g id="text_25">
     <!-- X2-A1-V1-C2 -->
     <g transform="translate(94.189425 141.223437) scale(0.1 -0.1)">
      <use xlink:href="#DejaVuSans-58"/>
      <use xlink:href="#DejaVuSans-32" transform="translate(68.505859 0)"/>
      <use xlink:href="#DejaVuSans-2d" transform="translate(132.128906 0)"/>
      <use xlink:href="#DejaVuSans-41" transform="translate(165.962891 0)"/>
      <use xlink:href="#DejaVuSans-31" transform="translate(234.371094 0)"/>
      <use xlink:href="#DejaVuSans-2d" transform="translate(297.994141 0)"/>
      <use xlink:href="#DejaVuSans-56" transform="translate(328.203125 0)"/>
      <use xlink:href="#DejaVuSans-31" transform="translate(396.611328 0)"/>
      <use xlink:href="#DejaVuSans-2d" transform="translate(460.234375 0)"/>
      <use xlink:href="#DejaVuSans-43" transform="translate(496.318359 0)"/>
      <use xlink:href="#DejaVuSans-32" transform="translate(566.142578 0)"/>
     </g>
    </g>
    <g id="line2d_35">
     <path d="M 66.189425 152.401562 
L 76.189425 152.401562 
L 86.189425 152.401562 
" style="fill: none; stroke-dasharray: 1.5,2.475; stroke-dashoffset: 0; stroke: #7f7f7f; stroke-width: 1.5"/>
    </g>
    <g id="text_26">
     <!-- X1-A1-V1-C2 -->
     <g transform="translate(94.189425 155.901562) scale(0.1 -0.1)">
      <use xlink:href="#DejaVuSans-58"/>
      <use xlink:href="#DejaVuSans-31" transform="translate(68.505859 0)"/>
      <use xlink:href="#DejaVuSans-2d" transform="translate(132.128906 0)"/>
      <use xlink:href="#DejaVuSans-41" transform="translate(165.962891 0)"/>
      <use xlink:href="#DejaVuSans-31" transform="translate(234.371094 0)"/>
      <use xlink:href="#DejaVuSans-2d" transform="translate(297.994141 0)"/>
      <use xlink:href="#DejaVuSans-56" transform="translate(328.203125 0)"/>
      <use xlink:href="#DejaVuSans-31" transform="translate(396.611328 0)"/>
      <use xlink:href="#DejaVuSans-2d" transform="translate(460.234375 0)"/>
      <use xlink:href="#DejaVuSans-43" transform="translate(496.318359 0)"/>
      <use xlink:href="#DejaVuSans-32" transform="translate(566.142578 0)"/>
     </g>
    </g>
    <g id="line2d_36">
     <path d="M 66.189425 167.079687 
L 76.189425 167.079687 
L 86.189425 167.079687 
" style="fill: none; stroke-dasharray: 1.5,2.475; stroke-dashoffset: 0; stroke: #bcbd22; stroke-width: 1.5"/>
    </g>
    <g id="text_27">
     <!-- X2-A0-V1-C0 -->
     <g transform="translate(94.189425 170.579687) scale(0.1 -0.1)">
      <use xlink:href="#DejaVuSans-58"/>
      <use xlink:href="#DejaVuSans-32" transform="translate(68.505859 0)"/>
      <use xlink:href="#DejaVuSans-2d" transform="translate(132.128906 0)"/>
      <use xlink:href="#DejaVuSans-41" transform="translate(165.962891 0)"/>
      <use xlink:href="#DejaVuSans-30" transform="translate(234.371094 0)"/>
      <use xlink:href="#DejaVuSans-2d" transform="translate(297.994141 0)"/>
      <use xlink:href="#DejaVuSans-56" transform="translate(328.203125 0)"/>
      <use xlink:href="#DejaVuSans-31" transform="translate(396.611328 0)"/>
      <use xlink:href="#DejaVuSans-2d" transform="translate(460.234375 0)"/>
      <use xlink:href="#DejaVuSans-43" transform="translate(496.318359 0)"/>
      <use xlink:href="#DejaVuSans-30" transform="translate(566.142578 0)"/>
     </g>
    </g>
   </g>
  </g>
 </g>
 <defs>
  <clipPath id="p715bd49baf">
   <rect x="57.189425" y="7.2" width="725.4" height="720.72"/>
  </clipPath>
 </defs>
</svg>
